<svg width="150" height="152" viewBox="0 0 150 152" fill="none" xmlns="http://www.w3.org/2000/svg">
<g clip-path="url(#clip0_87_34)">
<path d="M74.3304 48.6223L87.4573 58.7402L60.8729 76.9426L47.746 66.8247L74.3304 48.6223Z" fill="#F58300"/>
<path d="M47.746 66.8247L60.8729 76.9426L75.6695 102.452L62.5427 92.3345L47.746 66.8247Z" fill="#FF9900"/>
<path d="M83.539 14.4826C112.818 19.6407 129.781 48.8703 121.448 79.8028C113.116 110.735 82.6298 131.632 53.3506 126.491C24.0714 121.333 7.09245 92.0865 15.4414 61.154C23.7573 30.2051 54.2599 9.32442 83.539 14.4826ZM59.4015 104.006L100.171 76.0499L77.4716 36.9338L36.6858 64.8738L59.385 103.99" fill="#FF9900"/>
<g style="mix-blend-mode:multiply" opacity="0.4">
<path d="M20.9302 64.3118C29.2626 33.3793 59.7652 12.4987 89.0444 17.6403C93.6405 18.4504 97.9389 19.8557 101.874 21.7735C96.5337 18.219 90.367 15.6895 83.5225 14.4826C54.2433 9.32444 23.7408 30.2216 15.4083 61.154C8.382 87.2259 19.3431 112.107 40.4882 122.374C23.0133 110.735 14.5156 88.0195 20.9137 64.3283L20.9302 64.3118Z" fill="#FF9900"/>
</g>
<path d="M86.3826 27.5102L80.8773 24.3359L79.8358 51.78L94.6324 77.2732L68.048 95.5086L55.9958 116.621L61.5011 119.778L117.613 81.3237L86.3826 27.5102Z" fill="#F58300"/>
<path d="M80.8773 24.3359L112.107 78.1494L55.9958 116.604L24.7658 62.7907L80.8773 24.3359ZM47.7461 66.8246L62.5427 92.3344L89.1271 74.1155L74.3304 48.6223L47.7461 66.8246Z" fill="#FFB11C"/>
<path d="M87.1762 0.975457C123.515 7.37356 144.577 43.6625 134.228 82.0512C123.879 120.456 86.0355 146.379 49.6969 139.981C13.3418 133.583 -7.72071 97.2942 2.62868 58.889C12.9781 20.5004 50.8211 -5.42265 87.1762 0.975457ZM53.3341 126.474C82.6132 131.632 113.099 110.719 121.448 79.7862C129.781 48.8538 112.818 19.6077 83.5391 14.466C54.2599 9.30787 23.7573 30.205 15.4249 61.1375C7.09248 92.0699 24.0714 121.333 53.3341 126.474Z" fill="#FFB11C"/>
<path d="M113.182 12.3168C117.563 15.6894 121.944 19.0621 126.309 22.4347C145.801 37.4463 154.877 64.2456 147.355 92.1691C137.005 130.574 99.1623 156.497 62.8237 150.099C52.9042 148.347 44.1254 144.379 36.8015 138.741C34.6192 137.055 32.4204 135.369 30.2381 133.682C28.0558 131.996 25.8569 130.31 23.6746 128.623C30.982 134.261 39.7773 138.229 49.6969 139.981C86.0355 146.379 123.879 120.44 134.228 82.0511C141.75 54.1442 132.674 27.3283 113.182 12.3168Z" fill="#FF9900"/>
<g style="mix-blend-mode:overlay" opacity="0.4">
<path d="M119.051 16.8468C117.1 15.3423 115.133 13.8378 113.182 12.3334C132.674 27.3449 141.75 54.1442 134.228 82.0678C123.879 120.473 86.0355 146.396 49.6969 139.998C44.8033 139.138 40.1741 137.716 35.8757 135.848C40.5544 138.03 45.6299 139.667 51.0526 140.626C87.3911 147.024 125.234 121.085 135.584 82.696C142.494 57.054 135.385 32.3543 119.068 16.8633L119.051 16.8468Z" fill="white"/>
<path d="M34.9995 135.435C35.1482 135.501 35.3136 135.584 35.4624 135.65C35.3136 135.584 35.1648 135.501 34.9995 135.435Z" fill="white"/>
</g>
<g style="mix-blend-mode:overlay" opacity="0.2">
<path d="M55.9958 116.621L24.7658 62.7908L48.8538 46.2913L53.6317 62.8073L47.7461 66.8413L61.8318 91.1111L67.0396 109.082L56.0124 116.637L55.9958 116.621ZM42.3399 23.807L38.6036 10.9116C27.8243 17.5081 18.4338 26.8159 11.6059 38.0415L16.9128 56.3927C21.7569 42.7533 30.9655 31.3789 42.3399 23.8235V23.807ZM53.3341 126.474C46.5392 125.284 40.4222 122.771 35.1152 119.266L40.4222 137.584C43.3815 138.593 46.4731 139.403 49.6969 139.981C58.4261 141.519 67.2545 141.172 75.7688 139.254L72.0324 126.358C65.8989 127.483 59.5834 127.582 53.3341 126.474ZM80.8774 24.336L80.7616 24.4187L98.9309 87.1763L112.107 78.133L80.8774 24.336ZM106.817 25.5429L100.898 5.09212C96.6164 3.22394 92.0368 1.81867 87.1763 0.958974C82.6794 0.181944 78.166 -0.115643 73.6857 0.0496831L77.67 13.8048C79.6209 13.9205 81.5717 14.1354 83.5226 14.4826C92.599 16.0863 100.485 20.0045 106.817 25.5594V25.5429ZM121.944 77.7693C121.779 78.4471 121.63 79.125 121.448 79.8028C118.472 90.8631 112.636 100.634 105.065 108.388L109.049 122.126C116.621 115.53 123.085 107.462 127.896 98.2697L121.961 77.7693H121.944Z" fill="white"/>
</g>
</g>
<defs>
<clipPath id="clip0_87_34">
<rect width="150" height="151.075" fill="white"/>
</clipPath>
</defs>
</svg>
