<svg width="150" height="160" viewBox="0 0 150 160" fill="none" xmlns="http://www.w3.org/2000/svg">
<g clip-path="url(#clip0_87_81)">
<path d="M92.2268 106.094C92.2268 106.094 106.737 124.188 123.666 126.466C139.241 128.563 141.197 137.653 137.446 147.649L148.68 151.199C148.68 151.199 157.55 117.523 129.219 115.064C129.219 115.064 109.296 115.312 106.617 97.6396L92.2268 106.101V106.094Z" fill="#F3A229"/>
<path d="M25.9055 119.834C37.6893 157.161 83.6452 113.55 94.1695 159.861L107.347 151.668C87.6312 102.671 55.8372 144.641 40.0206 122.359L25.8988 119.834H25.9055Z" fill="#F3A229"/>
<path d="M46.847 38.2051L60.5065 85.0386" stroke="#F3A229" stroke-width="2" stroke-miterlimit="10"/>
<path d="M59.9437 39.9335L41.0321 86.8139" stroke="#F3A229" stroke-width="2" stroke-miterlimit="10"/>
<path d="M32.8592 47.8987L75.9144 70.8432" stroke="#F3A229" stroke-width="2" stroke-miterlimit="10"/>
<path d="M106.389 97.4052L106.188 96.6683L98.0617 67.2457L96.8425 62.8109L96.6549 62.1544L92.267 46.244L80.7579 4.54866C79.8468 1.2527 76.437 -0.683349 73.1343 0.227732L4.54869 19.1527C1.25273 20.0638 -0.68332 23.4737 0.221061 26.7763L12.0651 69.6909L16.1449 84.4759L17.5852 89.7012L25.8988 119.841C26.8099 123.136 30.2197 125.073 33.5157 124.161L52.5613 118.909L84.9917 109.953L102.108 105.23C105.404 104.319 107.34 100.909 106.429 97.6061L106.375 97.4119L106.389 97.4052ZM55.6027 76.4503C54.9261 76.5575 54.2562 76.6245 53.593 76.658C53.5193 76.658 53.4523 76.658 53.3853 76.658C51.2081 76.725 49.0978 76.3967 47.1283 75.7268C43.9328 74.6349 41.1058 72.6519 38.9889 70.0192C37.3409 67.9692 36.135 65.5308 35.5321 62.8243C35.4517 62.4626 35.378 62.0941 35.3178 61.7257C33.7837 52.0588 40.3756 42.9815 50.0424 41.4474C58.5771 40.0875 66.6562 45.0649 69.4766 52.9096C69.8584 53.948 70.1398 55.0332 70.3207 56.1654C70.6154 58.0009 70.6087 59.8231 70.3475 61.5649C69.8517 64.8876 68.4248 67.9625 66.2945 70.4479C66.1806 70.5819 66.06 70.7226 65.9394 70.8499C64.7068 72.2165 63.2665 73.3955 61.652 74.32C59.8365 75.3718 57.8 76.102 55.6027 76.4503Z" fill="#FCFCF9"/>
<path d="M52.6885 26.7898C51.744 20.8343 46.1502 16.7813 40.1947 17.7259C34.2392 18.6704 30.1862 24.2642 31.1308 30.2197C32.0753 36.1752 37.6691 40.2282 43.6246 39.2836C49.5802 38.3391 53.6331 32.7453 52.6885 26.7898Z" fill="#FF2250"/>
<path d="M43.6247 39.2837C37.6691 40.2282 32.0821 36.1686 31.1308 30.2197C31.1308 30.2197 36.5236 36.9792 41.079 30.7088C45.6277 24.4384 52.6886 26.7898 52.6886 26.7898C53.6331 32.7453 49.5735 38.3324 43.6247 39.2837Z" fill="#1E314F"/>
<path d="M98.0617 67.2457L17.5919 89.6945L12.0651 69.6842L35.5254 62.8243C37.5486 71.8815 46.3043 77.9241 55.6027 76.4436C65.2695 74.9095 71.8548 65.8255 70.314 56.1587C70.1331 55.0332 69.8517 53.9413 69.4699 52.9029L92.267 46.2306L98.0617 67.2323V67.2457Z" fill="#1E314F"/>
<path d="M47.1216 75.7335L25.9055 119.834L17.5919 89.6945L16.1516 84.4692L38.9889 70.0259C41.0991 72.6586 43.9329 74.6416 47.1283 75.7335H47.1216Z" fill="#F2C735"/>
<path d="M106.516 97.4922L106.382 97.4118L65.9395 70.8498C66.06 70.7292 66.1806 70.5885 66.2945 70.4479C68.4181 67.9625 69.8517 64.8876 70.3475 61.5648L96.6549 62.1543L96.8425 62.8109L98.1153 67.3797L106.315 96.7553L106.523 97.4922H106.516Z" fill="#F2C735"/>
<path d="M53.593 76.658L52.568 118.903L32.3836 124.476C29.7173 125.213 26.9573 123.646 26.2204 120.979L25.9055 119.834L47.1216 75.7335C49.0912 76.4034 51.2081 76.7317 53.3786 76.6647C53.4456 76.6647 53.5126 76.6647 53.5863 76.6647L53.593 76.658Z" fill="#FF2250"/>
<path d="M102.195 105.203L85.0051 109.946L61.652 74.32C63.2732 73.3888 64.7135 72.2164 65.9394 70.8498C66.06 70.7292 66.1806 70.5886 66.2945 70.4479L106.188 96.6682L106.315 96.7553L106.416 96.8223L106.616 97.6396C107.44 100.942 105.478 104.299 102.195 105.203Z" fill="#FF2250"/>
<path d="M84.9984 109.946L52.568 118.903L53.3786 76.6647C53.4456 76.6647 53.5126 76.6647 53.5863 76.6647C54.2495 76.6312 54.9194 76.5642 55.596 76.457C57.7933 76.1086 59.8231 75.3717 61.6453 74.3267L84.9984 109.953V109.946Z" fill="#60C0DD"/>
<path d="M19.1126 95.2212L25.2825 117.596C25.2825 117.596 26.2807 128.355 40.0206 122.359" stroke="#1E314F" stroke-width="2" stroke-linecap="round" stroke-linejoin="round"/>
<path d="M105.149 93.0842C105.149 93.0842 107.206 97.0099 106.483 100.574C106.061 102.644 104.426 104.258 102.403 104.868L82.2585 110.877" stroke="#1E314F" stroke-width="2" stroke-linecap="round" stroke-linejoin="round"/>
</g>
<defs>
<clipPath id="clip0_87_81">
<rect width="150" height="159.868" fill="white"/>
</clipPath>
</defs>
</svg>
