<svg width="150" height="154" viewBox="0 0 150 154" fill="none" xmlns="http://www.w3.org/2000/svg">
<g clip-path="url(#clip0_87_105)">
<path d="M150 106.438V106.887C149.874 130.165 132.102 149.659 108.967 152.17C98.0093 153.372 86.6571 153.999 75 153.999C63.3429 153.999 51.9907 153.372 41.033 152.17C17.8981 149.659 0.125538 130.183 0 106.905V106.456C0 102.78 0.251076 99.157 0.735294 95.6061C5.82855 57.9088 37.1413 28.9275 75 28.9275C112.859 28.9275 144.171 57.9268 149.265 95.5882C149.749 99.1391 150 102.762 150 106.438Z" fill="#ED3D21"/>
<path d="M149.265 95.5882C145.714 115.262 129.448 130.793 108.967 133.016C98.0093 134.2 86.6571 134.846 75 134.846C63.3429 134.846 51.9907 134.218 41.033 133.016C20.5524 130.793 4.28622 115.262 0.735291 95.5882C5.82855 57.9088 37.1413 28.9275 75 28.9275C112.859 28.9275 144.171 57.9268 149.265 95.5882Z" fill="#F45238"/>
<path d="M75.0717 114.383C63.8092 114.383 54.6628 105.219 54.6628 93.9742C54.6628 82.7296 63.8271 73.5653 75.0717 73.5653C86.3164 73.5653 95.4806 82.7296 95.4806 93.9742C95.4806 105.219 86.3164 114.383 75.0717 114.383ZM75.0717 74.3006C64.2217 74.3006 55.3802 83.1241 55.3802 93.9921C55.3802 104.86 64.2037 113.684 75.0717 113.684C85.9397 113.684 94.7633 104.86 94.7633 93.9921C94.7633 83.1241 85.9397 74.3006 75.0717 74.3006Z" fill="#C7331C"/>
<path d="M75.1255 105.111C81.3457 105.111 86.3881 100.069 86.3881 93.8486C86.3881 87.6285 81.3457 82.5861 75.1255 82.5861C68.9054 82.5861 63.863 87.6285 63.863 93.8486C63.863 100.069 68.9054 105.111 75.1255 105.111Z" fill="#C7331C"/>
<path d="M76.5782 57.3709C109.531 57.3709 136.245 49.743 136.245 40.3336C136.245 30.9241 109.531 23.2963 76.5782 23.2963C43.6253 23.2963 16.9117 30.9241 16.9117 40.3336C16.9117 49.743 43.6253 57.3709 76.5782 57.3709Z" fill="#F45238"/>
<path d="M125.879 38.5581C125.879 44.9785 105.219 50.1973 79.7166 50.1973C54.2145 50.1973 33.5545 44.9964 33.5545 38.5581C33.5545 32.1198 54.2145 26.9189 79.7166 26.9189C105.219 26.9189 125.879 32.1198 125.879 38.5581Z" fill="#F8CC00"/>
<path d="M124.964 21.9512L121.7 16.3199L118.024 18.4541C112.984 17.9699 106.223 19.6557 99.6772 23.4577C93.1313 27.2597 88.2891 32.2812 86.2088 36.8902L82.4965 39.0423L86.0115 45.122H86.0295C89.4011 50.538 100.682 49.9462 111.406 43.741C122.238 37.4641 128.39 27.8336 125.144 22.2382C125.09 22.1306 125.018 22.0409 124.964 21.9512Z" fill="#F8AE00"/>
<path d="M122.059 16.8938C125.305 22.4892 119.154 32.1198 108.321 38.3967C97.4893 44.6736 86.0832 45.2116 82.8372 39.6162C79.5911 34.0208 85.7425 24.3902 96.5746 18.1133C107.407 11.8364 118.813 11.2984 122.059 16.8938Z" fill="#F8CC00"/>
<path d="M92.0015 41.3738C88.3967 41.3738 85.5632 40.3157 84.3078 38.1457C82.9269 35.7604 83.5366 32.4068 86.0295 28.7124C88.4685 25.0718 92.3602 21.5926 97.0051 18.9025C101.65 16.2124 106.6 14.5624 110.958 14.2576C115.405 13.9347 118.616 15.0825 119.996 17.4677C122.794 22.292 116.984 31.0976 107.317 36.7109C101.991 39.7956 96.4132 41.3738 92.0015 41.3738ZM112.321 14.9391C111.908 14.9391 111.46 14.9391 111.012 14.9929C106.761 15.2798 101.919 16.8939 97.3637 19.5302C92.8085 22.1665 89.0065 25.5739 86.6392 29.1069C84.3437 32.5144 83.7339 35.6887 84.9534 37.787C87.5538 42.2705 97.6327 41.4993 106.958 36.0832C116.284 30.6851 121.987 22.3279 119.387 17.8264C118.311 15.9613 115.764 14.9391 112.321 14.9391Z" fill="#F8AE00"/>
<path d="M106.671 26.632L99.0495 31.0437C98.2066 31.528 97.1306 31.241 96.6464 30.3981C96.1621 29.5552 96.4491 28.4792 97.292 27.995L104.914 23.5832C105.757 23.099 106.833 23.3859 107.317 24.2288C107.801 25.0717 107.514 26.1478 106.671 26.632Z" fill="#F8AE00"/>
<path d="M78.0488 39.939L79.627 33.4111L75.3587 32.3709C71.9333 28.4075 65.6743 24.8565 58.0524 23.0093C50.4484 21.1801 43.2389 21.4849 38.3967 23.4577L34.0746 22.4175L32.3709 29.4835H32.4068C31.0438 35.9577 39.9211 43.5796 52.3673 46.5746C64.9391 49.6055 76.4168 46.7898 77.9771 40.2798C78.0129 40.1722 78.0129 40.0466 78.0488 39.939Z" fill="#F8AE00"/>
<path d="M79.4656 34.0926C77.9053 40.6026 66.4275 43.4183 53.8558 40.3874C41.2841 37.3566 32.3529 29.627 33.9311 23.117C35.4914 16.6069 46.9692 13.7913 59.5409 16.8221C72.1126 19.853 81.0438 27.5825 79.4656 34.0926Z" fill="#F8CC00"/>
<path d="M63.3429 39.4908C60.5094 39.4908 57.4247 39.1321 54.3042 38.3788C48.9061 37.0697 44.028 34.7741 40.5488 31.8867C36.9979 28.9456 35.4197 25.8071 36.0833 23.0453C37.4283 17.4499 48.0632 15.0108 59.2899 17.7189C64.688 19.0281 69.566 21.3236 73.0452 24.211C76.5962 27.1522 78.1744 30.2906 77.5108 33.0524C76.5424 37.0876 70.7138 39.4908 63.3429 39.4908ZM50.1435 17.3243C43.1492 17.3243 37.6973 19.5123 36.8006 23.2246C36.2088 25.6636 37.7511 28.6227 41.033 31.3308C44.4226 34.1464 49.2109 36.3882 54.4835 37.6794C65.3336 40.2978 75.556 38.0919 76.8114 32.8731C77.4032 30.4341 75.8609 27.475 72.5789 24.7669C69.1894 21.9513 64.401 19.7096 59.1284 18.4183C56.0079 17.6651 52.9591 17.3064 50.1435 17.3064V17.3243Z" fill="#F8AE00"/>
<path d="M61.0115 30.3981L52.1521 28.264C51.1837 28.0309 50.5739 27.0445 50.8071 26.0761C51.0402 25.1076 52.0266 24.4979 52.995 24.731L61.8544 26.8651C62.8228 27.0983 63.4326 28.0847 63.1995 29.0531C62.9663 30.0215 61.9799 30.6313 61.0115 30.3981Z" fill="#F8AE00"/>
<path d="M95.3013 30.2367L98.2783 24.4619L94.4943 22.5071C92.1808 18.0057 87.1055 13.2173 80.3802 9.75605C73.655 6.29479 66.8042 4.9318 61.8006 5.68503L57.9806 3.73022L54.7705 9.97126H54.7884C52.0266 15.746 58.6263 24.9282 69.6557 30.6133C80.7927 36.3342 92.1987 36.3163 95.1578 30.5595C95.2116 30.4519 95.2475 30.3443 95.3013 30.2546V30.2367Z" fill="#F8AE00"/>
<path d="M97.9734 25.0717C95.0143 30.8285 83.5904 30.8465 72.4713 25.1255C61.3343 19.4046 54.7166 10.0968 57.6757 4.34001C60.6348 -1.4168 72.0588 -1.43473 83.1779 4.28621C94.3149 10.0072 100.933 19.3149 97.9734 25.0717Z" fill="#F8CC00"/>
<path d="M87.9483 27.3135C87.8049 27.3135 87.6793 27.3135 87.5359 27.3135C83.16 27.2238 78.1384 25.8249 73.368 23.368C68.5976 20.911 64.5265 17.6291 61.9261 14.132C59.2539 10.5452 58.4828 7.22737 59.7382 4.78835C60.9935 2.34932 64.1141 1.04014 68.5976 1.12981C72.9735 1.21948 77.995 2.61833 82.7654 5.07529C87.5359 7.53225 91.6069 10.8142 94.2073 14.3113C96.8795 17.8981 97.6506 21.2159 96.3953 23.6549C95.1757 26.0222 92.1808 27.3135 87.9483 27.3135ZM73.6729 22.7223C78.3537 25.1255 83.2676 26.4885 87.5359 26.5782C91.6786 26.6678 94.6377 25.4663 95.7496 23.3142C96.8615 21.1621 96.0904 18.0416 93.6334 14.7417C91.0868 11.3163 87.1054 8.12407 82.4426 5.70298C77.7618 3.29982 72.8479 1.93684 68.5796 1.84717C64.4727 1.7575 61.4778 2.95908 60.3658 5.11116C59.2539 7.26324 60.0251 10.3838 62.4821 13.6836C65.0287 17.109 69.01 20.3013 73.6729 22.7223Z" fill="#F8AE00"/>
<path d="M81.4742 17.378L73.6371 13.3429C72.7762 12.8945 72.4355 11.8364 72.8838 10.9756C73.3322 10.1148 74.3903 9.77403 75.2511 10.2224L83.0883 14.2575C83.9491 14.7059 84.2898 15.764 83.8415 16.6248C83.3931 17.4857 82.335 17.8264 81.4742 17.378Z" fill="#F8AE00"/>
<path d="M76.7217 59.774C68.7052 59.774 61.4957 59.1463 55.4519 58.3034C36.8364 55.7029 24.7131 50.538 24.5875 50.4842C24.0316 50.251 23.7805 49.6054 24.0136 49.0494C24.2468 48.4935 24.8924 48.2424 25.4484 48.4755C25.9146 48.6728 73.2604 68.5975 126.596 48.7984C127.152 48.5831 127.78 48.8701 127.995 49.444C128.21 49.9999 127.923 50.6276 127.349 50.8428C109.003 57.6398 91.4634 59.774 76.7037 59.774H76.7217Z" fill="#F8CC00"/>
<path d="M119.44 107.819C119.44 107.819 119.351 107.819 119.315 107.819C118.723 107.747 118.293 107.209 118.364 106.6C121.27 83.1599 107.801 57.6398 107.227 56.5817L106.851 55.8644L107.425 55.2546C107.783 54.8959 108.339 54.8242 108.77 55.0753C125.986 64.6162 130.524 83.4289 130.703 84.236C130.846 84.8278 130.47 85.4017 129.896 85.5451C129.304 85.6886 128.73 85.312 128.587 84.7381C128.551 84.5588 124.641 68.4002 110.778 58.8952C114.58 66.9476 122.92 87.3027 120.499 106.905C120.427 107.46 119.961 107.855 119.422 107.855L119.44 107.819ZM109.128 55.5416C109.128 55.5416 109.128 55.5416 109.128 55.5595C109.128 55.5595 109.128 55.5595 109.128 55.5416Z" fill="#F8CC00"/>
</g>
<defs>
<clipPath id="clip0_87_105">
<rect width="150" height="153.999" fill="white"/>
</clipPath>
</defs>
</svg>
